<mxfile host="app.diagrams.net" agent="Mozilla/5.0 (Windows NT 10.0; Win64; x64) AppleWebKit/537.36 (KHTML, like Gecko) Chrome/130.0.0.0 Safari/537.36" version="24.8.6">
  <diagram name="Página-1" id="2QH1bt48WtYHpmRP5uRc">
    <mxGraphModel dx="989" dy="532" grid="1" gridSize="10" guides="1" tooltips="1" connect="1" arrows="1" fold="1" page="1" pageScale="1" pageWidth="827" pageHeight="1169" math="0" shadow="0">
      <root>
        <mxCell id="0" />
        <mxCell id="1" parent="0" />
        <mxCell id="CCIohgsg51L1VaLMQLdm-1" value="Hóspede" style="shape=umlActor;verticalLabelPosition=bottom;verticalAlign=top;html=1;outlineConnect=0;" vertex="1" parent="1">
          <mxGeometry x="200" y="110" width="30" height="60" as="geometry" />
        </mxCell>
        <mxCell id="CCIohgsg51L1VaLMQLdm-2" value="Elevador" style="shape=umlActor;verticalLabelPosition=bottom;verticalAlign=top;html=1;outlineConnect=0;" vertex="1" parent="1">
          <mxGeometry x="399" y="110" width="30" height="60" as="geometry" />
        </mxCell>
        <mxCell id="CCIohgsg51L1VaLMQLdm-3" value="Usuário" style="shape=umlActor;verticalLabelPosition=bottom;verticalAlign=top;html=1;outlineConnect=0;" vertex="1" parent="1">
          <mxGeometry x="590" y="110" width="30" height="60" as="geometry" />
        </mxCell>
        <mxCell id="CCIohgsg51L1VaLMQLdm-4" value="" style="endArrow=none;dashed=1;html=1;rounded=0;" edge="1" parent="1">
          <mxGeometry width="50" height="50" relative="1" as="geometry">
            <mxPoint x="214.66" y="550" as="sourcePoint" />
            <mxPoint x="214.66" y="200" as="targetPoint" />
          </mxGeometry>
        </mxCell>
        <mxCell id="CCIohgsg51L1VaLMQLdm-5" value="" style="rounded=1;whiteSpace=wrap;html=1;" vertex="1" parent="1">
          <mxGeometry x="200" y="210" width="30" height="320" as="geometry" />
        </mxCell>
        <mxCell id="CCIohgsg51L1VaLMQLdm-10" value="" style="endArrow=none;dashed=1;html=1;rounded=0;" edge="1" parent="1">
          <mxGeometry width="50" height="50" relative="1" as="geometry">
            <mxPoint x="413.65999999999997" y="545" as="sourcePoint" />
            <mxPoint x="413.65999999999997" y="195" as="targetPoint" />
          </mxGeometry>
        </mxCell>
        <mxCell id="CCIohgsg51L1VaLMQLdm-11" value="" style="rounded=1;whiteSpace=wrap;html=1;" vertex="1" parent="1">
          <mxGeometry x="399" y="205" width="30" height="320" as="geometry" />
        </mxCell>
        <mxCell id="CCIohgsg51L1VaLMQLdm-12" value="" style="endArrow=none;dashed=1;html=1;rounded=0;" edge="1" parent="1">
          <mxGeometry width="50" height="50" relative="1" as="geometry">
            <mxPoint x="604.66" y="545" as="sourcePoint" />
            <mxPoint x="604.66" y="195" as="targetPoint" />
          </mxGeometry>
        </mxCell>
        <mxCell id="CCIohgsg51L1VaLMQLdm-13" value="" style="rounded=1;whiteSpace=wrap;html=1;" vertex="1" parent="1">
          <mxGeometry x="590" y="205" width="30" height="320" as="geometry" />
        </mxCell>
        <mxCell id="CCIohgsg51L1VaLMQLdm-15" value="Aciona botão de incêndio" style="endArrow=classic;html=1;rounded=0;entryX=1.06;entryY=0.139;entryDx=0;entryDy=0;entryPerimeter=0;exitX=-0.021;exitY=0.139;exitDx=0;exitDy=0;exitPerimeter=0;" edge="1" parent="1" source="CCIohgsg51L1VaLMQLdm-13" target="CCIohgsg51L1VaLMQLdm-11">
          <mxGeometry width="50" height="50" relative="1" as="geometry">
            <mxPoint x="520" y="260" as="sourcePoint" />
            <mxPoint x="570" y="210" as="targetPoint" />
          </mxGeometry>
        </mxCell>
        <mxCell id="CCIohgsg51L1VaLMQLdm-17" style="edgeStyle=orthogonalEdgeStyle;rounded=0;orthogonalLoop=1;jettySize=auto;html=1;exitX=0.997;exitY=0.199;exitDx=0;exitDy=0;entryX=1.024;entryY=0.327;entryDx=0;entryDy=0;entryPerimeter=0;exitPerimeter=0;dashed=1;endArrow=open;endFill=0;fillColor=#d5e8d4;strokeColor=#161F11;" edge="1" parent="1" source="CCIohgsg51L1VaLMQLdm-11" target="CCIohgsg51L1VaLMQLdm-11">
          <mxGeometry relative="1" as="geometry">
            <Array as="points">
              <mxPoint x="460" y="269" />
              <mxPoint x="460" y="310" />
            </Array>
          </mxGeometry>
        </mxCell>
        <mxCell id="CCIohgsg51L1VaLMQLdm-18" value="&lt;font style=&quot;font-size: 10px;&quot;&gt;Se redireciona&lt;/font&gt;&lt;div style=&quot;font-size: 10px;&quot;&gt;&lt;font style=&quot;font-size: 10px;&quot;&gt;ao térreo e&lt;/font&gt;&lt;/div&gt;&lt;div style=&quot;font-size: 10px;&quot;&gt;&lt;font style=&quot;font-size: 10px;&quot;&gt;abre as portas&lt;/font&gt;&lt;/div&gt;" style="edgeLabel;html=1;align=center;verticalAlign=middle;resizable=0;points=[];" vertex="1" connectable="0" parent="CCIohgsg51L1VaLMQLdm-17">
          <mxGeometry x="-0.0015" y="2" relative="1" as="geometry">
            <mxPoint x="38" as="offset" />
          </mxGeometry>
        </mxCell>
        <mxCell id="CCIohgsg51L1VaLMQLdm-19" value="" style="endArrow=classic;html=1;rounded=0;entryX=-0.073;entryY=0.61;entryDx=0;entryDy=0;entryPerimeter=0;" edge="1" parent="1" target="CCIohgsg51L1VaLMQLdm-11">
          <mxGeometry width="50" height="50" relative="1" as="geometry">
            <mxPoint x="230" y="400" as="sourcePoint" />
            <mxPoint x="310" y="360" as="targetPoint" />
          </mxGeometry>
        </mxCell>
        <mxCell id="CCIohgsg51L1VaLMQLdm-21" value="Aciona botão de emergência" style="edgeLabel;html=1;align=center;verticalAlign=middle;resizable=0;points=[];" vertex="1" connectable="0" parent="CCIohgsg51L1VaLMQLdm-19">
          <mxGeometry x="0.0935" relative="1" as="geometry">
            <mxPoint x="-11" as="offset" />
          </mxGeometry>
        </mxCell>
        <mxCell id="CCIohgsg51L1VaLMQLdm-22" value="Aciona botão de emergência" style="endArrow=classic;html=1;rounded=0;entryX=1.033;entryY=0.609;entryDx=0;entryDy=0;entryPerimeter=0;exitX=-0.021;exitY=0.139;exitDx=0;exitDy=0;exitPerimeter=0;" edge="1" parent="1" target="CCIohgsg51L1VaLMQLdm-11">
          <mxGeometry x="-0.0001" width="50" height="50" relative="1" as="geometry">
            <mxPoint x="590" y="400" as="sourcePoint" />
            <mxPoint x="432" y="400" as="targetPoint" />
            <mxPoint as="offset" />
          </mxGeometry>
        </mxCell>
        <mxCell id="CCIohgsg51L1VaLMQLdm-24" style="edgeStyle=orthogonalEdgeStyle;rounded=0;orthogonalLoop=1;jettySize=auto;html=1;exitX=0.997;exitY=0.199;exitDx=0;exitDy=0;entryX=1.024;entryY=0.327;entryDx=0;entryDy=0;entryPerimeter=0;exitPerimeter=0;dashed=1;endArrow=open;endFill=0;fillColor=#d5e8d4;strokeColor=#161F11;" edge="1" parent="1">
          <mxGeometry relative="1" as="geometry">
            <mxPoint x="429" y="430" as="sourcePoint" />
            <mxPoint x="430" y="471" as="targetPoint" />
            <Array as="points">
              <mxPoint x="460" y="430" />
              <mxPoint x="460" y="471" />
            </Array>
          </mxGeometry>
        </mxCell>
        <mxCell id="CCIohgsg51L1VaLMQLdm-25" value="&lt;span style=&quot;font-size: 10px;&quot;&gt;Se redireciona ao andar&lt;/span&gt;&lt;div&gt;&lt;span style=&quot;font-size: 10px;&quot;&gt;mais próximo, abre as&lt;/span&gt;&lt;/div&gt;&lt;div&gt;&lt;span style=&quot;font-size: 10px;&quot;&gt;portas para os hóspedes&lt;/span&gt;&lt;/div&gt;&lt;div&gt;&lt;span style=&quot;font-size: 10px;&quot;&gt;saírem e depois fecha&lt;/span&gt;&lt;/div&gt;" style="edgeLabel;html=1;align=center;verticalAlign=middle;resizable=0;points=[];" vertex="1" connectable="0" parent="CCIohgsg51L1VaLMQLdm-24">
          <mxGeometry x="-0.0015" y="2" relative="1" as="geometry">
            <mxPoint x="58" as="offset" />
          </mxGeometry>
        </mxCell>
      </root>
    </mxGraphModel>
  </diagram>
</mxfile>
